<svg
			width="100%"
			height="100%"
			fill="none"
			stroke-width="2px"
			viewBox="-55 -125 2000 700"
			xmlns="http://www.w3.org/2000/svg"
		>
			<rect width="1900" height="450" id="repeat" fill="#000" opacity="0" display="none">
				<set
					attributeName="display"
					to="inline"
					begin="animateA3.end+0.7s"
					end="repeat.click;indefinite"
				/>
			</rect>
			<g id="container" stroke="#c6e2ff">
				<path
					stroke-linecap="round"
					stroke-linejoin="round"
					stroke-dasharray="2572.19287109375"
					stroke-dashoffset="2572.19287109375"
					d="M 320.401 203.202 L 403.601 197.202 Q 406.14 197.202 406.664 199.217 A 4.715 4.715 0 0 1 406.801 200.402 Q 406.801 203.602 401.401 207.202 A 17.019 17.019 0 0 1 397.812 208.945 Q 393.817 210.404 387.346 211.281 A 121.143 121.143 0 0 1 380.401 212.002 Q 367.657 212.982 331.691 213.962 A 5039.737 5039.737 0 0 1 314.401 214.402 A 826.365 826.365 0 0 1 300.513 240.438 Q 273.079 289.533 259.213 293.629 A 8.512 8.512 0 0 1 256.801 294.002 A 19.432 19.432 0 0 1 249.998 292.873 Q 244.857 290.965 241.781 285.829 A 22.525 22.525 0 0 1 240.801 284.002 A 301.041 301.041 0 0 0 215.117 241.067 A 257.764 257.764 0 0 0 199.601 221.602 L 188.001 232.802 Q 128.801 288.002 50.001 288.002 A 225.568 225.568 0 0 1 33.458 287.427 Q 23.438 286.689 15.001 285.002 A 70.146 70.146 0 0 1 9.999 283.826 Q 2.522 281.748 0.636 278.849 A 3.699 3.699 0 0 1 0.001 276.802 A 4.16 4.16 0 0 1 0.274 275.232 Q 1.004 273.429 3.691 273.227 A 9.471 9.471 0 0 1 4.401 273.202 A 12.512 12.512 0 0 1 6.644 273.422 Q 7.76 273.626 9.019 274.02 A 30.026 30.026 0 0 1 11.201 274.802 Q 22.79 279.437 54.152 279.596 A 444.363 444.363 0 0 0 56.401 279.602 Q 116.001 279.602 169.201 232.802 A 62815.928 62815.928 0 0 0 173.707 228.577 Q 186.301 216.767 188.393 214.79 A 38.658 38.658 0 0 0 188.801 214.402 Q 151.201 211.602 125.601 204.402 Q 80.001 191.602 80.001 174.002 A 10.113 10.113 0 0 1 83.05 166.769 Q 84.487 165.283 86.601 164.002 Q 92.012 160.722 100.247 160.131 A 52.5 52.5 0 0 1 104.001 160.002 A 110.35 110.35 0 0 1 160.929 176.305 Q 176.415 185.469 191.323 199.785 A 212.571 212.571 0 0 1 194.401 202.802 Q 197.17 202.802 198.756 203.038 A 8.978 8.978 0 0 1 199.601 203.202 Q 233.576 166.555 281.758 100.763 A 2375.549 2375.549 0 0 0 286.401 94.402 Q 304.401 70.002 322.401 47.202 A 300.403 300.403 0 0 1 338.132 28.882 Q 363.445 1.901 381.495 0.127 A 25.598 25.598 0 0 1 384.001 0.002 Q 397.468 0.002 399.309 10.137 A 19.397 19.397 0 0 1 399.601 13.602 A 24.428 24.428 0 0 1 398.694 18.929 Q 395.483 31.681 380.907 67.957 A 2135.055 2135.055 0 0 1 373.801 85.402 Q 348.001 148.002 320.401 203.202 Z M 376.801 10.402 A 18.066 18.066 0 0 0 368.802 12.571 Q 358.592 17.676 344.632 34.799 A 226.449 226.449 0 0 0 341.601 38.602 Q 324.757 60.192 299.59 95.5 A 3743.153 3743.153 0 0 0 283.401 118.402 Q 255.685 157.908 230.901 187.097 A 585.835 585.835 0 0 1 216.001 204.002 Q 244.001 204.802 265.001 204.802 Q 286.001 204.802 298.801 204.002 Q 327.201 148.002 354.201 85.602 Q 376.772 33.437 380.474 18.451 A 20.36 20.36 0 0 0 381.201 14.002 A 4.16 4.16 0 0 0 380.928 12.432 Q 380.197 10.629 377.51 10.427 A 9.471 9.471 0 0 0 376.801 10.402 Z M 251.601 281.202 A 7.11 7.11 0 0 0 255.828 278.684 Q 264.509 270.234 283.847 233.425 A 1165.633 1165.633 0 0 0 293.201 215.202 Q 251.28 215.95 238.954 215.998 A 400.456 400.456 0 0 1 237.401 216.002 Q 228.979 216.002 215.281 215.533 A 1547.47 1547.47 0 0 1 206.401 215.202 Q 230.001 243.602 244.801 275.602 Q 246.132 278.708 248.079 280.091 A 5.934 5.934 0 0 0 251.601 281.202 Z M 93.201 174.402 A 7.635 7.635 0 0 0 95.845 179.734 Q 103.012 186.881 129.601 193.602 Q 145.526 197.277 166.609 200.014 A 630.401 630.401 0 0 0 180.001 201.602 A 164.574 164.574 0 0 0 155.747 183.432 Q 140.99 174.508 126.36 170.882 A 82.712 82.712 0 0 0 106.401 168.402 Q 93.201 168.402 93.201 174.402 Z"
					vector-effect="non-scaling-stroke"
				>
					<animate
						id="animateA1"
						attributeName="stroke-dashoffset"
						from="-2572.19287109375"
						to="0"
						begin="0s;repeat.click+0.25s"
						dur="1s"
						keyTimes="0 1"
						calcMode="linear"
						
					/>
					<set
						attributeName="stroke-dashoffset"
						to="0"
						begin="animateA1.end"
						end="repeat.click;indefinite"
					/>
				</path>
				<path
					stroke-linecap="round"
					stroke-linejoin="round"
					stroke-dasharray="1172.8941650390625"
					stroke-dashoffset="1172.8941650390625"
					d="M 620.401 114.402 L 563.201 111.602 Q 528.001 111.602 493.201 114.402 L 495.201 122.402 A 6.148 6.148 0 0 1 494.287 124.917 Q 490.326 132.239 469.201 155.802 A 974.649 974.649 0 0 0 431.013 201.2 A 1128.623 1128.623 0 0 0 417.201 219.002 Q 393.047 250.773 391.332 267.183 A 23.283 23.283 0 0 0 391.201 269.602 A 13.113 13.113 0 0 0 391.383 271.898 Q 392.117 276.002 395.801 276.002 Q 400.371 276.002 416.591 264.945 A 301.032 301.032 0 0 0 416.801 264.802 A 745.386 745.386 0 0 0 452.77 239.645 A 626.625 626.625 0 0 0 472.401 224.402 L 481.201 217.202 Q 483.739 215.388 485.62 215.219 A 4.243 4.243 0 0 1 486.001 215.202 Q 487.857 215.202 487.99 217.268 A 5.166 5.166 0 0 1 488.001 217.602 L 488.001 218.802 A 0.082 0.082 0 0 1 488.105 218.876 Q 488.105 219.807 471.847 232.369 A 1414.622 1414.622 0 0 1 466.601 236.402 Q 443.601 254.002 417.401 271.602 A 412.59 412.59 0 0 1 408.258 277.583 Q 390.283 288.976 384.621 289.197 A 5.621 5.621 0 0 1 384.401 289.202 Q 374.496 289.202 373.049 281.619 A 15.039 15.039 0 0 1 372.801 278.802 Q 372.801 266.532 383.878 246.704 A 207.273 207.273 0 0 1 389.801 236.802 Q 406.801 210.002 427.001 186.202 Q 447.201 162.402 465.401 141.202 A 638.672 638.672 0 0 0 471.642 133.828 Q 483.22 119.919 485.023 115.668 A 6.334 6.334 0 0 0 485.201 115.202 Q 448.935 118.499 426.528 122.882 A 230.318 230.318 0 0 0 417.601 124.802 L 409.601 126.402 A 3.094 3.094 0 0 0 407.069 128.369 Q 406.401 129.842 406.401 132.402 A 1.795 1.795 0 0 1 405.376 134.016 Q 404.019 134.794 400.866 134.802 A 25.869 25.869 0 0 1 400.801 134.802 Q 396.826 134.802 391.542 133.492 A 73.834 73.834 0 0 1 387.001 132.202 Q 378.801 129.602 378.801 124.802 Q 378.801 120.142 386.341 118.498 A 27.205 27.205 0 0 1 386.801 118.402 Q 441.318 108.824 466.662 106.201 A 284.176 284.176 0 0 1 470.801 105.802 A 7762.59 7762.59 0 0 1 480.857 104.916 Q 493.519 103.809 500.241 103.275 A 582.748 582.748 0 0 1 503.801 103.002 Q 511.852 102.413 528.773 102.016 A 1453.008 1453.008 0 0 1 529.401 102.002 Q 543.615 101.675 550.221 101.615 A 289.64 289.64 0 0 1 552.801 101.602 Q 570.801 100.802 595.001 100.802 A 464.932 464.932 0 0 1 603.408 100.872 Q 620.176 101.177 624.401 102.802 Q 629.601 104.802 629.601 110.402 A 3.001 3.001 0 0 1 627.902 113.101 Q 625.648 114.402 620.401 114.402 Z"
					vector-effect="non-scaling-stroke"
				>
					<animate
						id="animateT1"
						attributeName="stroke-dashoffset"
						from="-1172.8941650390625"
						to="0"
						begin="animateA1.end"
						dur=".7s"
						
						keyTimes="0 1"
						calcMode="linear"
						
					/>
					<set
						attributeName="stroke-dashoffset"
						to="0"
						begin="animateT1.end"
						end="repeat.click;indefinite"
					/>
				</path>
				<path
					stroke-linecap="round"
					stroke-linejoin="round"
					stroke-dasharray="730.2672729492188"
					stroke-dashoffset="730.2672729492188"
					d="M 588.001 224.402 L 596.801 217.202 Q 599.339 215.388 601.22 215.219 A 4.243 4.243 0 0 1 601.601 215.202 Q 603.457 215.202 603.59 217.268 A 5.166 5.166 0 0 1 603.601 217.602 L 603.601 218.802 A 0.082 0.082 0 0 1 603.705 218.876 Q 603.705 219.807 587.447 232.369 A 1414.622 1414.622 0 0 1 582.201 236.402 Q 559.201 254.002 533.001 271.602 A 412.591 412.591 0 0 1 523.858 277.583 Q 505.883 288.976 500.221 289.197 A 5.621 5.621 0 0 1 500.001 289.202 Q 490.096 289.202 488.649 281.619 A 15.039 15.039 0 0 1 488.401 278.802 Q 488.401 273.547 492.85 265.531 A 73.192 73.192 0 0 1 494.201 263.202 A 402.426 402.426 0 0 0 496.186 259.883 Q 499.542 254.206 500.244 252.458 A 3.672 3.672 0 0 0 500.401 252.002 A 4.004 4.004 0 0 0 500.458 251.739 Q 500.664 250.592 499.886 250.429 A 1.391 1.391 0 0 0 499.601 250.402 A 1.956 1.956 0 0 0 498.87 250.566 Q 497.799 251.003 496.201 252.602 A 16.484 16.484 0 0 1 494.719 253.827 Q 490.803 256.813 477.991 265.314 A 1824.944 1824.944 0 0 1 471.801 269.402 A 246.671 246.671 0 0 1 463.961 274.363 Q 451.256 282.048 444.342 283.606 A 14.461 14.461 0 0 1 441.201 284.002 A 6.124 6.124 0 0 1 438.686 283.523 Q 436.073 282.356 435.673 278.345 A 15.583 15.583 0 0 1 435.601 276.802 A 11.468 11.468 0 0 1 436.525 272.936 Q 439.887 264.195 455.474 243.01 A 603.945 603.945 0 0 1 458.001 239.602 Q 475.386 216.318 484.82 211.105 A 10.201 10.201 0 0 1 489.601 209.602 A 4.627 4.627 0 0 1 491.964 210.27 Q 492.606 210.645 493.225 211.23 A 8.872 8.872 0 0 1 493.401 211.402 A 14.321 14.321 0 0 1 494.102 212.151 Q 495.115 213.322 495.194 214.077 A 1.2 1.2 0 0 1 495.201 214.202 Q 495.201 215.074 479.522 233.148 A 2458.417 2458.417 0 0 1 474.601 238.802 A 343.047 343.047 0 0 0 467.6 247.061 Q 454.001 263.677 454.001 269.202 A 2.303 2.303 0 0 0 454.08 269.835 Q 454.284 270.545 455.008 270.733 A 2.357 2.357 0 0 0 455.601 270.802 A 11.977 11.977 0 0 0 459.757 269.83 Q 468.628 266.378 488.079 250.662 A 436.412 436.412 0 0 0 488.401 250.402 Q 508.304 234.29 519.099 223.917 A 153.373 153.373 0 0 0 524.201 218.802 A 84.966 84.966 0 0 1 528.618 214.438 Q 535.414 208.24 539.901 207.661 A 7.034 7.034 0 0 1 540.801 207.602 A 10.07 10.07 0 0 1 543.065 207.833 Q 546.169 208.552 546.694 211.506 A 7.408 7.408 0 0 1 546.801 212.802 A 9.274 9.274 0 0 1 545.955 216.602 Q 545.412 217.82 544.521 219.039 A 16.441 16.441 0 0 1 544.401 219.202 A 151.582 151.582 0 0 1 542.992 221.045 Q 540.402 224.388 535.401 230.602 Q 528.801 238.802 523.201 246.002 A 326.183 326.183 0 0 0 517.899 252.974 Q 507.601 266.939 507.601 271.002 A 8.7 8.7 0 0 0 507.781 272.858 Q 508.47 276.002 511.801 276.002 A 7.217 7.217 0 0 0 514.011 275.54 Q 519.15 273.789 531.515 265.405 A 321.917 321.917 0 0 0 532.401 264.802 A 745.386 745.386 0 0 0 568.37 239.645 A 626.625 626.625 0 0 0 588.001 224.402 Z"
					vector-effect="non-scaling-stroke"
				>
					<animate
						id="animateU1"
						attributeName="stroke-dashoffset"
						from="-730.2672729492188"
						to="0"
						begin="animateT1.end"
						dur=".7s"
						keyTimes="0 1"
						calcMode="linear"
						
					/>
					<set
						attributeName="stroke-dashoffset"
						to="0"
						begin="animateU1.end"
						end="repeat.click;indefinite"
					/>
				</path>
				<path
					stroke-linecap="round"
					stroke-linejoin="round"
					stroke-dasharray="1282.326171875"
					stroke-dashoffset="1282.326171875"
					d="M 682.401 226.002 L 692.401 217.602 A 13.72 13.72 0 0 1 694.195 216.505 Q 695.19 216.004 696.129 215.781 A 6.359 6.359 0 0 1 697.601 215.602 Q 699.875 215.602 699.994 218.115 A 6.036 6.036 0 0 1 700.001 218.402 L 700.001 219.202 Q 667.145 246.371 646.765 260.565 A 259.881 259.881 0 0 1 636.801 267.202 A 168.917 168.917 0 0 1 622.547 276.968 Q 607.566 286.057 595.584 287.921 A 38.92 38.92 0 0 1 589.601 288.402 A 20.048 20.048 0 0 1 582.449 287.229 Q 572.801 283.558 572.801 268.402 A 62.362 62.362 0 0 1 575.388 251.816 Q 582.262 227.219 607.401 189.002 Q 642.001 136.402 685.201 94.402 A 367.681 367.681 0 0 1 703.086 78.036 Q 729.999 55.137 746.586 52.694 A 26.188 26.188 0 0 1 750.401 52.402 A 16.54 16.54 0 0 1 754.175 52.793 Q 759.297 53.998 760.205 58.912 A 12.609 12.609 0 0 1 760.401 61.202 A 31.31 31.31 0 0 1 757.316 73.535 Q 749.424 91.456 721.344 120.353 A 567.422 567.422 0 0 1 707.801 133.802 A 972.292 972.292 0 0 1 649.195 185.981 A 761.31 761.31 0 0 1 604.401 220.002 Q 593.015 241.849 590.389 255.649 A 40.677 40.677 0 0 0 589.601 263.202 A 31.191 31.191 0 0 0 589.998 268.418 Q 591.576 277.675 599.439 277.991 A 14.032 14.032 0 0 0 600.001 278.002 A 24.742 24.742 0 0 0 607.102 276.837 Q 615.634 274.263 627.201 266.002 A 374.883 374.883 0 0 0 675.465 231.877 A 420.121 420.121 0 0 0 682.401 226.002 Z M 740.401 65.202 A 21.537 21.537 0 0 0 731.187 67.816 Q 717.878 74.37 695.744 97.353 A 521.871 521.871 0 0 0 680.801 113.602 Q 638.001 162.002 610.001 210.402 A 551.299 551.299 0 0 0 666.72 163.699 A 677.143 677.143 0 0 0 700.001 130.202 A 685.457 685.457 0 0 0 714.954 113.601 Q 744.001 80.177 744.001 68.802 A 5.183 5.183 0 0 0 743.822 67.377 Q 743.365 65.78 741.734 65.355 A 5.304 5.304 0 0 0 740.401 65.202 Z"
					vector-effect="non-scaling-stroke"
				>
					<animate
						id="animateL1"
						attributeName="stroke-dashoffset"
						from="-1282.326171875"
						to="0"
						begin="animateU1.end"
						dur=".5s"
						keyTimes="0 1"
						calcMode="linear"
						
					/>
					<set
						attributeName="stroke-dashoffset"
						to="0"
						begin="animateL1.end"
						end="repeat.click;indefinite"
					/>
				</path>
				<path
					stroke-linecap="round"
					stroke-linejoin="round"
					stroke-dasharray="1658.74169921875"
					stroke-dashoffset="1658.74169921875"
					d="M 801.214 131.813 A 245.407 245.407 0 0 0 802.001 131.602 Q 849.201 77.602 902.601 40.202 A 320.008 320.008 0 0 1 930.944 22.333 Q 960.956 5.71 984.688 3.235 A 78.194 78.194 0 0 1 992.801 2.802 A 55.256 55.256 0 0 1 998.937 3.112 Q 1005.094 3.804 1008.16 6.042 A 7.009 7.009 0 0 1 1011.201 12.002 Q 1011.201 23.224 988.268 43.291 A 247.197 247.197 0 0 1 983.201 47.602 A 332.24 332.24 0 0 1 959.838 65.17 Q 946.44 74.409 930.478 83.83 A 669.597 669.597 0 0 1 910.401 95.202 Q 865.601 119.602 822.401 134.002 Q 790.001 171.602 770.001 206.802 A 233.175 233.175 0 0 0 760.333 225.621 Q 750.001 248.414 750.001 264.802 A 35.289 35.289 0 0 0 752.692 279.128 Q 760.48 296.802 790.801 296.802 A 85.631 85.631 0 0 0 812.449 293.845 Q 821.839 291.392 831.907 286.903 A 167.976 167.976 0 0 0 841.201 282.402 A 398.324 398.324 0 0 0 862.042 270.768 Q 871.716 264.956 879.791 259.211 A 204.941 204.941 0 0 0 886.801 254.002 A 22.388 22.388 0 0 1 888.972 252.648 Q 891.504 251.278 893.572 251.206 A 6.554 6.554 0 0 1 893.801 251.202 A 4.043 4.043 0 0 1 895.006 251.366 Q 896.324 251.778 896.674 253.222 A 5.022 5.022 0 0 1 896.801 254.402 A 4.762 4.762 0 0 1 895.745 257.388 A 6.544 6.544 0 0 1 895.201 258.002 Q 880.807 268.414 868.875 276.013 A 338.17 338.17 0 0 1 861.801 280.402 Q 851.193 286.795 835.834 293.084 A 335.493 335.493 0 0 1 823.601 297.802 A 147.505 147.505 0 0 1 799.09 304.512 A 117.377 117.377 0 0 1 778.401 306.402 A 95.997 95.997 0 0 1 760.005 304.801 Q 728.001 298.52 728.001 267.602 A 95.076 95.076 0 0 1 733.712 237.029 Q 747.238 197.527 792.801 142.402 Q 773.601 147.202 756.001 148.402 Q 751.201 147.602 751.201 143.202 Q 751.201 139.494 754.326 138.627 A 7.212 7.212 0 0 1 755.601 138.402 Q 776.47 138.402 801.214 131.813 Z M 980.401 14.002 A 51.002 51.002 0 0 0 965.236 16.625 Q 944.718 23.078 915.001 45.402 A 523.704 523.704 0 0 0 865.716 87.695 A 664.354 664.354 0 0 0 832.401 122.402 Q 869.601 109.202 907.401 87.802 Q 945.201 66.402 968.001 47.402 Q 986.663 31.85 990.05 23.132 A 9.839 9.839 0 0 0 990.801 19.602 Q 990.801 14.417 981.886 14.033 A 34.503 34.503 0 0 0 980.401 14.002 Z"
					vector-effect="non-scaling-stroke"
				>
					<animate
						id="animateC1"
						attributeName="stroke-dashoffset"
						from="-1658.74169921875"
						to="0"
						begin="animateL1.end"
						dur=".7s"
						keyTimes="0 1"
						calcMode="linear"
						
					/>
					<set
						attributeName="stroke-dashoffset"
						to="0"
						begin="animateC1.end"
						end="repeat.click;indefinite"
					/>
				</path>
				<path
					stroke-linecap="round"
					stroke-linejoin="round"
					stroke-dasharray="1147.005859375"
					stroke-dashoffset="1147.005859375"
					d="M 1054.401 224.402 L 1063.201 217.202 A 13.72 13.72 0 0 1 1064.995 216.105 Q 1065.99 215.604 1066.929 215.381 A 6.359 6.359 0 0 1 1068.401 215.202 A 3.455 3.455 0 0 1 1069.351 215.321 Q 1070.416 215.626 1070.699 216.713 A 3.536 3.536 0 0 1 1070.801 217.602 L 1070.801 218.802 A 866.661 866.661 0 0 1 1031.77 249.614 A 732.985 732.985 0 0 1 1008.801 266.002 A 327.571 327.571 0 0 1 998.055 273.886 Q 976.188 289.202 966.601 289.202 Q 956.013 289.202 954.925 281.473 A 13.432 13.432 0 0 1 954.801 279.602 A 23.726 23.726 0 0 1 955.747 273.515 Q 958.593 263.014 970.001 244.402 Q 984.657 220.49 985.181 217.96 A 0.803 0.803 0 0 0 985.201 217.802 Q 985.201 216.258 984.025 216.038 A 2.306 2.306 0 0 0 983.601 216.002 A 7.276 7.276 0 0 0 980.753 216.879 Q 973.206 220.494 951.801 239.002 A 1222.039 1222.039 0 0 0 928.314 259.817 Q 915.826 271.189 905.201 281.602 A 82.708 82.708 0 0 1 902.513 283.913 Q 898.259 287.401 895.839 288.178 A 4.104 4.104 0 0 1 894.601 288.402 Q 891.601 288.402 891.601 284.002 A 10.043 10.043 0 0 1 892.134 280.937 Q 893.267 277.424 896.801 272.802 L 1036.401 60.002 A 16.678 16.678 0 0 1 1039.78 56.13 A 12.853 12.853 0 0 1 1048.201 53.202 Q 1055.601 53.202 1055.601 58.002 A 8.295 8.295 0 0 1 1055.117 60.715 Q 1054.741 61.806 1054.071 62.95 A 17.188 17.188 0 0 1 1053.401 64.002 Q 1051.325 67.022 1029.119 98.366 A 61892.626 61892.626 0 0 1 1026.401 102.202 A 4809.32 4809.32 0 0 0 1017.839 114.321 Q 1003.17 135.161 998.883 141.86 A 63.41 63.41 0 0 0 997.801 143.602 Q 994.215 149.642 966.402 191.309 A 14615.904 14615.904 0 0 1 963.001 196.402 Q 932.001 242.802 930.201 245.402 Q 928.752 247.494 928.469 248.939 A 3.456 3.456 0 0 0 928.401 249.602 A 2.661 2.661 0 0 0 928.463 250.206 Q 928.696 251.202 929.801 251.202 Q 931.123 251.202 931.553 250.845 A 0.691 0.691 0 0 0 931.601 250.802 A 231.642 231.642 0 0 1 941.512 241.505 Q 946.772 236.832 953.044 231.706 A 547.429 547.429 0 0 1 966.601 221.002 Q 984.847 207.029 993.771 204.541 A 12.956 12.956 0 0 1 997.201 204.002 Q 1000.401 204.002 1002.801 206.202 A 6.553 6.553 0 0 1 1004.473 208.743 Q 1005.201 210.648 1005.201 213.402 A 8.407 8.407 0 0 1 1004.557 216.143 Q 1002.217 222.415 991.369 238.068 A 474.96 474.96 0 0 1 989.601 240.602 Q 974.001 262.802 974.001 269.402 Q 974.001 273.965 976.009 275.373 A 3.722 3.722 0 0 0 978.201 276.002 Q 982.286 276.002 998.293 265.405 A 338.227 338.227 0 0 0 999.201 264.802 A 778.636 778.636 0 0 0 1038.182 237.113 A 663.676 663.676 0 0 0 1054.401 224.402 Z"
					vector-effect="non-scaling-stroke"
				>
					<animate
						id="animateH1"
						attributeName="stroke-dashoffset"
						from="-1147.005859375"
						to="0"
						begin="animateC1.end"
						dur=".8s"
						keyTimes="0 1"
						calcMode="linear"
						
					/>
					<set
						attributeName="stroke-dashoffset"
						to="0"
						begin="animateH1.end"
						end="repeat.click;indefinite"
					/>
				</path>
				<path
					stroke-linecap="round"
					stroke-linejoin="round"
					stroke-dasharray="731.3316040039062"
					stroke-dashoffset="731.3316040039062"
					d="M 1147.201 224.402 L 1154.001 226.402 A 226.716 226.716 0 0 1 1133.938 241.512 Q 1112.468 255.747 1094.77 258.527 A 53.903 53.903 0 0 1 1086.401 259.202 Q 1083.74 259.202 1082.185 258.925 A 8.701 8.701 0 0 1 1081.601 258.802 A 108.09 108.09 0 0 1 1067.32 273.349 A 91.349 91.349 0 0 1 1058.001 280.202 A 71.78 71.78 0 0 1 1050.498 284.437 Q 1042.276 288.402 1035.601 288.402 A 19.398 19.398 0 0 1 1029.311 287.468 Q 1020.662 284.507 1020.409 272.156 A 36.766 36.766 0 0 1 1020.401 271.402 Q 1020.401 254.526 1048.388 226.415 A 266.402 266.402 0 0 1 1048.801 226.002 Q 1044.001 214.402 1044.001 201.602 A 28.904 28.904 0 0 1 1045.825 191.154 A 25.933 25.933 0 0 1 1053.201 180.802 Q 1062.401 172.802 1074.601 172.802 Q 1086.801 172.802 1095.201 180.802 Q 1103.203 188.423 1103.582 202.215 A 50.483 50.483 0 0 1 1103.601 203.602 A 75.695 75.695 0 0 1 1097.378 233.17 A 102.621 102.621 0 0 1 1088.801 249.202 Q 1090.131 249.534 1092.568 249.59 A 44.988 44.988 0 0 0 1093.601 249.602 A 51.084 51.084 0 0 0 1110.041 246.624 Q 1124.306 241.764 1141.342 228.97 A 210.673 210.673 0 0 0 1147.201 224.402 Z M 1080.801 245.602 A 125.918 125.918 0 0 0 1087.071 233.798 Q 1092.77 221.405 1093.171 211.66 A 35.5 35.5 0 0 0 1093.201 210.202 A 46.975 46.975 0 0 0 1092.566 202.203 Q 1091.827 197.931 1090.225 194.569 A 20.575 20.575 0 0 0 1086.001 188.602 A 33.822 33.822 0 0 0 1081.761 185.062 Q 1079.349 183.386 1076.984 182.522 A 14.447 14.447 0 0 0 1072.001 181.602 A 19.533 19.533 0 0 0 1066.386 182.338 Q 1060.196 184.198 1058.575 190.759 A 21.917 21.917 0 0 0 1058.001 196.002 Q 1058.001 210.402 1064.401 224.602 A 63.259 63.259 0 0 0 1069.95 234.566 Q 1074.707 241.458 1080.801 245.602 Z M 1036.801 269.202 A 8.664 8.664 0 0 0 1037.492 272.795 Q 1039.165 276.5 1044.887 277.09 A 22.596 22.596 0 0 0 1047.201 277.202 Q 1056.902 277.202 1071.477 258.754 A 157.215 157.215 0 0 0 1073.601 256.002 A 40.056 40.056 0 0 1 1063.701 248.606 Q 1059.994 244.886 1056.641 239.924 A 77.791 77.791 0 0 1 1054.401 236.402 Q 1040.32 251.763 1037.505 263.539 A 24.34 24.34 0 0 0 1036.801 269.202 Z"
					vector-effect="non-scaling-stroke"
				>
					<animate
						id="animateO1"
						attributeName="stroke-dashoffset"
						from="-731.3316040039062"
						to="0"
						begin="animateH1.end"
						dur=".7s"
						keyTimes="0 1"
						calcMode="linear"
						
					/>
					<set
						attributeName="stroke-dashoffset"
						to="0"
						begin="animateO1.end"
						end="repeat.click;indefinite"
					/>
				</path>
				<path
					stroke-linecap="round"
					stroke-linejoin="round"
					stroke-dasharray="730.2677001953125"
					stroke-dashoffset="730.2677001953125"
					d="M 1262.801 224.402 L 1271.601 217.202 Q 1274.139 215.388 1276.02 215.219 A 4.243 4.243 0 0 1 1276.401 215.202 Q 1278.257 215.202 1278.39 217.268 A 5.166 5.166 0 0 1 1278.401 217.602 L 1278.401 218.802 A 0.082 0.082 0 0 1 1278.505 218.876 Q 1278.505 219.807 1262.247 232.369 A 1414.622 1414.622 0 0 1 1257.001 236.402 Q 1234.001 254.002 1207.801 271.602 A 412.591 412.591 0 0 1 1198.658 277.583 Q 1180.683 288.976 1175.021 289.197 A 5.621 5.621 0 0 1 1174.801 289.202 Q 1164.896 289.202 1163.449 281.619 A 15.039 15.039 0 0 1 1163.201 278.802 Q 1163.201 273.547 1167.65 265.531 A 73.192 73.192 0 0 1 1169.001 263.202 A 402.426 402.426 0 0 0 1170.986 259.883 Q 1174.342 254.206 1175.044 252.458 A 3.672 3.672 0 0 0 1175.201 252.002 A 4.004 4.004 0 0 0 1175.258 251.739 Q 1175.464 250.592 1174.686 250.429 A 1.391 1.391 0 0 0 1174.401 250.402 A 1.956 1.956 0 0 0 1173.67 250.566 Q 1172.599 251.003 1171.001 252.602 A 16.484 16.484 0 0 1 1169.519 253.827 Q 1165.603 256.813 1152.791 265.314 A 1824.944 1824.944 0 0 1 1146.601 269.402 A 246.671 246.671 0 0 1 1138.761 274.363 Q 1126.056 282.048 1119.142 283.606 A 14.461 14.461 0 0 1 1116.001 284.002 A 6.124 6.124 0 0 1 1113.486 283.523 Q 1110.873 282.356 1110.473 278.345 A 15.583 15.583 0 0 1 1110.401 276.802 A 11.468 11.468 0 0 1 1111.325 272.936 Q 1114.687 264.195 1130.274 243.01 A 603.945 603.945 0 0 1 1132.801 239.602 Q 1150.186 216.318 1159.62 211.105 A 10.201 10.201 0 0 1 1164.401 209.602 A 4.627 4.627 0 0 1 1166.764 210.27 Q 1167.406 210.645 1168.025 211.23 A 8.872 8.872 0 0 1 1168.201 211.402 A 14.321 14.321 0 0 1 1168.902 212.151 Q 1169.915 213.322 1169.994 214.077 A 1.2 1.2 0 0 1 1170.001 214.202 Q 1170.001 215.074 1154.322 233.148 A 2458.417 2458.417 0 0 1 1149.401 238.802 A 343.047 343.047 0 0 0 1142.4 247.061 Q 1128.801 263.677 1128.801 269.202 A 2.303 2.303 0 0 0 1128.88 269.835 Q 1129.084 270.545 1129.808 270.733 A 2.357 2.357 0 0 0 1130.401 270.802 A 11.977 11.977 0 0 0 1134.557 269.83 Q 1143.428 266.378 1162.879 250.662 A 436.412 436.412 0 0 0 1163.201 250.402 Q 1183.104 234.29 1193.899 223.917 A 153.373 153.373 0 0 0 1199.001 218.802 A 84.966 84.966 0 0 1 1203.418 214.438 Q 1210.214 208.24 1214.701 207.661 A 7.034 7.034 0 0 1 1215.601 207.602 A 10.07 10.07 0 0 1 1217.865 207.833 Q 1220.969 208.552 1221.494 211.506 A 7.408 7.408 0 0 1 1221.601 212.802 A 9.274 9.274 0 0 1 1220.755 216.602 Q 1220.212 217.82 1219.321 219.039 A 16.441 16.441 0 0 1 1219.201 219.202 A 151.582 151.582 0 0 1 1217.792 221.045 Q 1215.202 224.388 1210.201 230.602 Q 1203.601 238.802 1198.001 246.002 A 326.183 326.183 0 0 0 1192.699 252.974 Q 1182.401 266.939 1182.401 271.002 A 8.7 8.7 0 0 0 1182.581 272.858 Q 1183.27 276.002 1186.601 276.002 A 7.217 7.217 0 0 0 1188.811 275.54 Q 1193.95 273.789 1206.315 265.405 A 321.917 321.917 0 0 0 1207.201 264.802 A 745.386 745.386 0 0 0 1243.17 239.645 A 626.625 626.625 0 0 0 1262.801 224.402 Z"
					vector-effect="non-scaling-stroke"
				>
					<animate
						id="animateU2"
						attributeName="stroke-dashoffset"
						from="-730.2677001953125"
						to="0"
						begin="animateO1.end"
						dur=".7s"
						keyTimes="0 1"
						calcMode="linear"
						
					/>
					<set
						attributeName="stroke-dashoffset"
						to="0"
						begin="animateU2.end"
						end="repeat.click;indefinite"
					/>
				</path>
				<path
					stroke-linecap="round"
					stroke-linejoin="round"
					stroke-dasharray="584.7388305664062"
					stroke-dashoffset="584.7388305664062"
					d="M 1350.801 224.402 L 1359.201 217.602 A 13.72 13.72 0 0 1 1360.995 216.505 Q 1361.99 216.004 1362.929 215.781 A 6.359 6.359 0 0 1 1364.401 215.602 Q 1366.675 215.602 1366.794 218.115 A 6.036 6.036 0 0 1 1366.801 218.402 L 1366.801 219.202 Q 1336.801 243.202 1307.601 264.202 A 257.102 257.102 0 0 1 1295.572 272.384 Q 1275.426 285.202 1264.801 285.202 A 13.251 13.251 0 0 1 1260.723 284.628 Q 1256.42 283.236 1255.244 278.469 A 17.026 17.026 0 0 1 1254.801 274.402 Q 1254.801 264.867 1262.283 255.333 A 53.877 53.877 0 0 1 1264.401 252.802 A 214.092 214.092 0 0 1 1275.138 241.538 A 168.922 168.922 0 0 1 1283.401 234.002 Q 1292.594 226.178 1292.796 223.519 A 1.543 1.543 0 0 0 1292.801 223.402 Q 1292.801 220.802 1289.801 217.402 A 46.591 46.591 0 0 0 1288.192 215.663 Q 1286.238 213.664 1284.801 212.802 A 98.012 98.012 0 0 1 1281.06 216.313 Q 1273.013 223.539 1255.201 237.602 L 1253.601 231.602 A 581.21 581.21 0 0 0 1262.306 224.566 Q 1275.096 214.005 1280.188 208.238 A 23.518 23.518 0 0 0 1282.801 204.802 L 1282.801 201.202 A 79.109 79.109 0 0 1 1282.911 196.866 Q 1283.261 190.507 1284.732 187.73 A 7.194 7.194 0 0 1 1284.801 187.602 Q 1286.732 184.125 1293.887 178.037 A 130.536 130.536 0 0 1 1294.401 177.602 A 86.968 86.968 0 0 1 1297.082 175.427 Q 1302.526 171.202 1304.801 171.202 A 7.189 7.189 0 0 1 1309.645 173.064 A 9.239 9.239 0 0 1 1309.801 173.202 Q 1311.136 174.416 1311.661 175.629 A 3.934 3.934 0 0 1 1312.001 177.202 A 7.026 7.026 0 0 1 1311.77 178.926 Q 1311.432 180.258 1310.601 181.802 Q 1309.349 184.127 1308.096 185.813 A 22.119 22.119 0 0 1 1307.801 186.202 Q 1306.86 187.411 1305.468 188.982 A 108.58 108.58 0 0 1 1304.001 190.602 A 83.604 83.604 0 0 0 1303.037 191.663 Q 1301.47 193.42 1301.001 194.202 A 5.665 5.665 0 0 0 1300.668 194.864 Q 1300.345 195.613 1300.021 196.768 A 30.859 30.859 0 0 0 1299.801 197.602 Q 1299.201 200.002 1297.201 201.602 A 5.627 5.627 0 0 0 1295.906 203.034 A 4.792 4.792 0 0 0 1295.201 205.602 Q 1295.201 208.002 1298.401 216.202 Q 1300.776 222.288 1301.388 225.95 A 13.841 13.841 0 0 1 1301.601 228.202 Q 1301.601 231.78 1288.479 244.579 A 283.962 283.962 0 0 1 1286.801 246.202 A 104.304 104.304 0 0 0 1281.034 252.156 Q 1272.109 262.204 1272.002 269.036 A 10.556 10.556 0 0 0 1272.001 269.202 A 7.59 7.59 0 0 0 1272.204 271.043 Q 1272.803 273.431 1275.169 273.892 A 6.452 6.452 0 0 0 1276.401 274.002 A 11.314 11.314 0 0 0 1279.553 273.452 Q 1284.551 271.96 1293.44 266.415 A 185.58 185.58 0 0 0 1297.201 264.002 L 1302.001 260.802 A 847.577 847.577 0 0 0 1342.138 231.288 A 755.776 755.776 0 0 0 1350.801 224.402 Z"
					vector-effect="non-scaling-stroke"
				>
					<animate
						id="animateR1"
						attributeName="stroke-dashoffset"
						from="-584.7388305664062"
						to="0"
						begin="animateU2.end"
						dur=".5s"
						keyTimes="0 1"
						calcMode="linear"
						
					/>
					<set
						attributeName="stroke-dashoffset"
						to="0"
						begin="animateR1.end"
						end="repeat.click;indefinite"
					/>
				</path>
				<path
					stroke-linecap="round"
					stroke-linejoin="round"
					stroke-dasharray="827.7307739257812"
					stroke-dashoffset="827.7307739257812"
					d="M 1459.601 232.802 L 1478.801 217.602 A 13.72 13.72 0 0 1 1480.595 216.505 Q 1481.59 216.004 1482.529 215.781 A 6.359 6.359 0 0 1 1484.001 215.602 Q 1486.275 215.602 1486.394 218.115 A 6.036 6.036 0 0 1 1486.401 218.402 L 1486.401 219.202 Q 1455.601 245.202 1421.401 268.002 A 448.413 448.413 0 0 1 1409.399 275.75 Q 1385.176 290.802 1376.401 290.802 A 17.313 17.313 0 0 1 1371.258 290.104 Q 1363.601 287.72 1363.601 277.202 Q 1363.601 274.002 1364.801 271.202 A 31.071 31.071 0 0 0 1365.297 269.977 Q 1365.958 268.233 1365.998 267.316 A 2.631 2.631 0 0 0 1366.001 267.202 Q 1366.001 266.002 1365.201 265.602 A 1.41 1.41 0 0 0 1364.698 265.77 Q 1362.226 266.952 1349.801 276.402 Q 1335.601 287.202 1325.001 287.202 A 14.412 14.412 0 0 1 1320.742 286.627 Q 1314.401 284.664 1314.401 276.002 A 23.63 23.63 0 0 1 1315.723 268.664 Q 1317.997 261.764 1324.18 252.83 A 139.747 139.747 0 0 1 1329.401 245.802 A 133.48 133.48 0 0 1 1348.858 226.037 A 182.169 182.169 0 0 1 1369.601 211.202 Q 1394.333 195.891 1417.91 195.607 A 73.952 73.952 0 0 1 1418.801 195.602 A 18.546 18.546 0 0 1 1423.206 196.1 A 13.864 13.864 0 0 1 1428.201 198.402 A 9.001 9.001 0 0 1 1431.683 203.899 A 14.27 14.27 0 0 1 1432.001 207.002 A 9.099 9.099 0 0 1 1431.206 210.435 Q 1429.182 215.314 1422.003 222.77 A 120.941 120.941 0 0 1 1420.401 224.402 Q 1411.168 233.635 1403.962 235.519 A 14.065 14.065 0 0 1 1400.401 236.002 A 4.703 4.703 0 0 1 1399.532 235.929 Q 1398.088 235.656 1398.006 234.362 A 2.524 2.524 0 0 1 1398.001 234.202 A 2.984 2.984 0 0 1 1398.302 232.956 Q 1398.92 231.614 1400.801 230.002 A 66.947 66.947 0 0 0 1406.263 225.049 Q 1414.001 217.139 1414.001 210.402 A 5.067 5.067 0 0 0 1411.137 205.783 Q 1408.649 204.374 1404.001 204.002 A 34.022 34.022 0 0 0 1391.435 206.977 Q 1380.844 211.501 1368.348 222.885 A 175.463 175.463 0 0 0 1361.001 230.002 A 222.418 222.418 0 0 0 1351.336 240.5 Q 1336.001 258.377 1336.001 268.402 Q 1336.001 272.663 1340.691 272.797 A 10.838 10.838 0 0 0 1341.001 272.802 A 10.34 10.34 0 0 0 1344.269 272.202 Q 1347.336 271.172 1351.287 268.372 A 61.362 61.362 0 0 0 1354.401 266.002 Q 1362.001 261.202 1382.801 242.002 A 23.524 23.524 0 0 1 1385.469 239.681 Q 1386.97 238.577 1388.429 237.965 A 9.186 9.186 0 0 1 1392.001 237.202 Q 1397.601 237.202 1397.601 242.402 A 5.411 5.411 0 0 1 1397.432 243.789 A 3.939 3.939 0 0 1 1396.401 245.602 Q 1395.421 246.582 1393.106 249.297 A 282.242 282.242 0 0 0 1392.001 250.602 A 188.674 188.674 0 0 0 1389.045 254.197 Q 1387.664 255.921 1386.477 257.5 A 115.386 115.386 0 0 0 1386.401 257.602 Q 1380.612 265.963 1379.478 269.671 A 5.397 5.397 0 0 0 1379.201 271.202 A 14.68 14.68 0 0 0 1379.465 274.122 Q 1380.383 278.625 1384.496 279.136 A 8.964 8.964 0 0 0 1385.601 279.202 Q 1392.906 279.202 1411.402 267.556 A 287.165 287.165 0 0 0 1417.201 263.802 Q 1440.401 248.402 1459.601 232.802 Z"
					vector-effect="non-scaling-stroke"
				>
					<animate
						id="animateA2"
						attributeName="stroke-dashoffset"
						from="-827.7307739257812"
						to="0"
						begin="animateR1.end"
						dur=".8s"
						keyTimes="0 1"
						calcMode="linear"
						
					/>
					<set
						attributeName="stroke-dashoffset"
						to="0"
						begin="animateA2.end"
						end="repeat.click;indefinite"
					/>
				</path>
				<path
					stroke-linecap="round"
					stroke-linejoin="round"
					stroke-dasharray="498.6483154296875"
					stroke-dashoffset="498.6483154296875"
					d="M 1547.201 226.402 L 1558.401 217.602 A 19.627 19.627 0 0 1 1560.122 216.635 Q 1561.987 215.716 1563.445 215.614 A 5.118 5.118 0 0 1 1563.801 215.602 Q 1565.755 215.602 1565.973 217.81 A 6.015 6.015 0 0 1 1566.001 218.402 L 1566.001 219.202 Q 1535.201 245.202 1501.001 268.002 Q 1467.282 290.481 1457.864 290.797 A 7.862 7.862 0 0 1 1457.601 290.802 A 41.263 41.263 0 0 1 1450.871 290.283 Q 1445.979 289.474 1442.201 287.402 A 20.014 20.014 0 0 1 1439.561 285.696 Q 1436.001 282.936 1436.001 279.602 Q 1436.001 275.202 1438.401 272.202 A 14.809 14.809 0 0 1 1439.504 270.96 Q 1441.27 269.202 1442.801 269.202 Q 1444.801 269.202 1449.401 275.402 A 26.237 26.237 0 0 0 1451.671 278.096 Q 1454.422 280.915 1457.101 281.467 A 6.426 6.426 0 0 0 1458.401 281.602 A 9.127 9.127 0 0 0 1464.978 278.611 Q 1468.26 275.321 1470.804 268.411 A 72.273 72.273 0 0 0 1472.801 262.002 Q 1477.705 243.519 1477.984 235.885 A 24.175 24.175 0 0 0 1478.001 235.002 A 85.671 85.671 0 0 0 1477.976 232.87 Q 1477.873 228.734 1477.331 227.845 A 0.41 0.41 0 0 0 1477.001 227.602 A 2.381 2.381 0 0 0 1475.508 228.13 A 3.272 3.272 0 0 0 1475.201 228.402 L 1463.601 237.602 L 1462.001 231.602 A 581.21 581.21 0 0 0 1470.706 224.566 Q 1483.496 214.005 1488.588 208.238 A 23.518 23.518 0 0 0 1491.201 204.802 A 17.281 17.281 0 0 1 1492.413 202.192 Q 1494.615 198.402 1498.001 198.402 A 5.807 5.807 0 0 1 1498.988 198.478 Q 1500.801 198.792 1500.801 200.402 A 5.676 5.676 0 0 1 1500.667 201.497 Q 1500.303 203.281 1498.953 206.686 A 105.824 105.824 0 0 1 1498.001 209.002 Q 1495.201 215.602 1490.601 238.802 A 1242.959 1242.959 0 0 0 1489.038 246.813 Q 1486.418 260.498 1486.058 264.554 A 12.375 12.375 0 0 0 1486.001 265.602 A 9.679 9.679 0 0 0 1486.071 266.825 Q 1486.376 269.202 1488.001 269.202 Q 1516.001 252.002 1547.201 226.402 Z"
					vector-effect="non-scaling-stroke"
				>
					<animate
						id="animateS1"
						attributeName="stroke-dashoffset"
						from="-498.6483154296875"
						to="0"
						begin="animateA2.end"
						dur=".5s"
						keyTimes="0 1"
						calcMode="linear"
						
					/>
					<set
						attributeName="stroke-dashoffset"
						to="0"
						begin="animateS1.end"
						end="repeat.click;indefinite"
					/>
				</path>
				<path
					stroke-linecap="round"
					stroke-linejoin="round"
					stroke-dasharray="519.6785278320312"
					stroke-dashoffset="519.6785278320312"
					d="M 1626.001 224.402 L 1634.801 217.202 Q 1637.3 215.64 1638.945 215.298 A 4.222 4.222 0 0 1 1639.801 215.202 A 1.891 1.891 0 0 1 1640.63 215.371 Q 1641.429 215.756 1641.57 217.018 A 5.25 5.25 0 0 1 1641.601 217.602 L 1641.601 218.802 A 0.082 0.082 0 0 1 1641.705 218.876 Q 1641.705 219.807 1625.447 232.369 A 1414.622 1414.622 0 0 1 1620.201 236.402 Q 1597.201 254.002 1571.001 271.602 A 412.59 412.59 0 0 1 1561.858 277.583 Q 1543.883 288.976 1538.221 289.197 A 5.621 5.621 0 0 1 1538.001 289.202 Q 1526.401 289.202 1526.401 279.602 A 24.579 24.579 0 0 1 1527.495 273.049 Q 1530.475 262.589 1541.572 243.77 A 405.25 405.25 0 0 1 1546.401 235.802 A 284.37 284.37 0 0 1 1553.521 224.859 Q 1564.042 209.546 1570.863 205.264 A 9.181 9.181 0 0 1 1575.601 203.602 A 13.041 13.041 0 0 1 1578.08 203.816 Q 1582.069 204.592 1582.375 208.184 A 7.264 7.264 0 0 1 1582.401 208.802 A 7.902 7.902 0 0 1 1581.645 211.648 Q 1578.893 218.18 1566.112 234.522 A 502.183 502.183 0 0 1 1564.001 237.202 Q 1547.448 258.072 1545.786 268.26 A 13.331 13.331 0 0 0 1545.601 270.402 A 10.974 10.974 0 0 0 1545.771 272.428 Q 1546.407 275.798 1549.428 275.99 A 5.889 5.889 0 0 0 1549.801 276.002 Q 1553.886 276.002 1569.893 265.405 A 338.227 338.227 0 0 0 1570.801 264.802 A 778.636 778.636 0 0 0 1609.782 237.113 A 663.676 663.676 0 0 0 1626.001 224.402 Z M 1601.801 163.202 Q 1605.601 163.202 1607.801 165.602 A 7.843 7.843 0 0 1 1609.517 168.716 Q 1610.001 170.339 1610.001 172.402 A 8.768 8.768 0 0 1 1609.415 175.386 Q 1608.126 178.927 1604.001 183.602 A 38.956 38.956 0 0 1 1601.276 186.416 Q 1596.97 190.402 1593.601 190.402 Q 1590.603 190.402 1588.719 189.195 A 5.953 5.953 0 0 1 1587.201 187.802 Q 1585.201 185.202 1585.201 181.802 Q 1585.201 178.69 1590.562 172.06 A 81.941 81.941 0 0 1 1591.601 170.802 A 52.614 52.614 0 0 1 1594.254 167.864 Q 1598.413 163.621 1601.252 163.239 A 4.114 4.114 0 0 1 1601.801 163.202 Z"
					vector-effect="non-scaling-stroke"
				>
					<animate
						id="animateI1"
						attributeName="stroke-dashoffset"
						from="-519.6785278320312"
						to="0"
						begin="animateS1.end"
						dur=".5s"
						keyTimes="0 1"
						calcMode="linear"
						
					/>
					<set
						attributeName="stroke-dashoffset"
						to="0"
						begin="animateI1.end"
						end="repeat.click;indefinite"
					/>
				</path>
				<path
					stroke-linecap="round"
					stroke-linejoin="round"
					stroke-dasharray="1583.6907958984375"
					stroke-dashoffset="1583.6907958984375"
					d="M 1760.401 224.402 L 1769.201 217.202 A 21.425 21.425 0 0 1 1770.816 216.28 Q 1772.932 215.202 1774.401 215.202 A 2.879 2.879 0 0 1 1775.192 215.301 Q 1776.401 215.647 1776.401 217.202 L 1776.001 218.802 Q 1777.761 218.802 1760.006 232.431 A 1151.935 1151.935 0 0 1 1754.801 236.402 Q 1731.601 254.002 1712.001 267.602 Q 1695.703 278.911 1664.745 295.198 A 1151.421 1151.421 0 0 1 1651.601 302.002 L 1623.201 336.802 A 30.981 30.981 0 0 1 1628.635 351.972 A 39.073 39.073 0 0 1 1628.801 355.602 A 52.328 52.328 0 0 1 1626.076 371.717 Q 1622.281 383.448 1613.201 396.602 A 177.954 177.954 0 0 1 1592.217 421.883 A 150.796 150.796 0 0 1 1578.201 434.202 Q 1562.829 446.087 1551.852 448.555 A 24.884 24.884 0 0 1 1546.401 449.202 A 9.594 9.594 0 0 1 1540.656 447.282 A 12.539 12.539 0 0 1 1539.801 446.602 A 8.502 8.502 0 0 1 1536.944 441.319 A 12.304 12.304 0 0 1 1536.801 439.402 A 13.784 13.784 0 0 1 1537.145 436.542 Q 1538.059 432.286 1541.401 425.602 A 104.308 104.308 0 0 1 1545.47 418.28 Q 1549.376 411.827 1555.001 404.202 Q 1564.001 392.002 1572.001 382.202 Q 1580.001 372.402 1592.401 357.602 Q 1604.69 342.934 1610.693 335.731 A 3465.063 3465.063 0 0 0 1610.801 335.602 Q 1603.601 329.202 1594.601 327.602 A 40.479 40.479 0 0 1 1591.6 326.96 Q 1587.089 325.798 1585.97 324.032 A 2.262 2.262 0 0 1 1585.601 322.802 A 43.432 43.432 0 0 1 1586.03 321.7 Q 1586.89 319.584 1587.375 319.22 A 0.571 0.571 0 0 1 1587.401 319.202 A 1.658 1.658 0 0 1 1587.765 319.031 Q 1588.545 318.756 1590.401 318.602 Q 1592.801 318.402 1605.601 315.002 Q 1615.151 312.465 1627.373 307.59 A 332.734 332.734 0 0 0 1636.001 304.002 Q 1684.675 242.018 1689.788 233.719 A 11.498 11.498 0 0 0 1690.201 233.002 A 120.861 120.861 0 0 0 1691.22 230.988 Q 1693.091 227.2 1693.195 226.12 A 1.235 1.235 0 0 0 1693.201 226.002 A 1.26 1.26 0 0 0 1693.088 225.449 Q 1692.831 224.916 1691.99 224.822 A 3.5 3.5 0 0 0 1691.601 224.802 A 2.341 2.341 0 0 0 1690.494 225.11 Q 1689.337 225.731 1688.001 227.602 Q 1687.302 227.951 1679.732 234.866 A 1195.325 1195.325 0 0 0 1677.401 237.002 A 419.06 419.06 0 0 1 1663.074 249.59 A 362.579 362.579 0 0 1 1658.201 253.602 A 142.549 142.549 0 0 1 1646.677 261.962 A 182.381 182.381 0 0 1 1636.401 268.202 A 75.547 75.547 0 0 1 1629.179 271.817 Q 1621.451 275.145 1615.405 275.201 A 22.284 22.284 0 0 1 1615.201 275.202 A 17.824 17.824 0 0 1 1612.044 274.948 Q 1606.401 273.927 1606.401 268.802 A 33.17 33.17 0 0 1 1608.253 259.31 Q 1611.321 250.1 1619.446 237.97 A 203.031 203.031 0 0 1 1626.601 228.002 A 305.083 305.083 0 0 1 1633.569 219.166 Q 1646.995 202.83 1652.647 202.042 A 4.007 4.007 0 0 1 1653.201 202.002 A 19.236 19.236 0 0 1 1655.49 202.126 Q 1660.001 202.67 1660.001 205.602 Q 1660.001 207.602 1641.801 230.402 A 379.175 379.175 0 0 0 1635.616 238.347 Q 1624.063 253.64 1623.619 258.435 A 3.98 3.98 0 0 0 1623.601 258.802 A 13.039 13.039 0 0 0 1623.727 260.705 Q 1624.072 263.03 1625.357 263.893 A 3.231 3.231 0 0 0 1627.201 264.402 Q 1634.401 264.402 1668.601 235.202 A 603.167 603.167 0 0 1 1680.505 225.278 Q 1702.67 207.323 1709.829 206.092 A 5.768 5.768 0 0 1 1710.801 206.002 A 5.114 5.114 0 0 1 1713.402 206.74 Q 1714.158 207.18 1714.893 207.882 A 10.995 10.995 0 0 1 1715.401 208.402 A 9.153 9.153 0 0 1 1716.815 210.398 A 6.925 6.925 0 0 1 1717.601 213.602 A 13.682 13.682 0 0 1 1715.659 218.896 Q 1707.288 234.757 1662.82 288.97 A 2839.528 2839.528 0 0 1 1660.001 292.402 Q 1714.001 262.402 1760.401 224.402 Z M 1617.601 353.602 A 29.83 29.83 0 0 0 1617.084 348.179 A 36.574 36.574 0 0 0 1616.401 345.202 A 1664.976 1664.976 0 0 0 1602.62 362.677 Q 1566.04 409.743 1559.183 426.885 A 18.218 18.218 0 0 0 1557.601 433.202 A 1.728 1.728 0 0 0 1557.66 433.677 Q 1557.813 434.209 1558.356 434.351 A 1.768 1.768 0 0 0 1558.801 434.402 Q 1565.601 434.402 1579.601 421.202 A 140.967 140.967 0 0 0 1594.718 404.327 A 184.734 184.734 0 0 0 1605.601 388.402 Q 1613.476 375.539 1616.183 364.572 A 45.788 45.788 0 0 0 1617.601 353.602 Z M 1603.601 322.402 L 1615.601 329.602 L 1620.801 322.802 Q 1627.201 315.202 1628.801 312.802 Q 1619.24 317.088 1612.94 319.064 A 58.699 58.699 0 0 1 1610.401 319.802 A 100.841 100.841 0 0 0 1608.442 320.34 Q 1603.601 321.727 1603.601 322.402 Z"
					vector-effect="non-scaling-stroke"
				>
					<animate
						id="animateY1"
						attributeName="stroke-dashoffset"
						from="-1583.6907958984375"
						to="0"
						begin="animateI1.end"
						dur="1s"
						keyTimes="0 1"
						calcMode="linear"
						
					/>
					<set
						attributeName="stroke-dashoffset"
						to="0"
						begin="animateY1.end"
						end="repeat.click;indefinite"
					/>
				</path>
				<path
					stroke-linecap="round"
					stroke-linejoin="round"
					stroke-dasharray="827.731201171875"
					stroke-dashoffset="827.731201171875"
					d="M 1868.801 232.802 L 1888.001 217.602 A 13.72 13.72 0 0 1 1889.795 216.505 Q 1890.79 216.004 1891.729 215.781 A 6.359 6.359 0 0 1 1893.201 215.602 Q 1895.475 215.602 1895.594 218.115 A 6.036 6.036 0 0 1 1895.601 218.402 L 1895.601 219.202 Q 1864.801 245.202 1830.601 268.002 A 448.413 448.413 0 0 1 1818.599 275.75 Q 1794.376 290.802 1785.601 290.802 A 17.313 17.313 0 0 1 1780.458 290.104 Q 1772.801 287.72 1772.801 277.202 Q 1772.801 274.002 1774.001 271.202 A 31.071 31.071 0 0 0 1774.497 269.977 Q 1775.158 268.233 1775.198 267.316 A 2.631 2.631 0 0 0 1775.201 267.202 Q 1775.201 266.002 1774.401 265.602 A 1.41 1.41 0 0 0 1773.898 265.77 Q 1771.426 266.952 1759.001 276.402 Q 1744.801 287.202 1734.201 287.202 A 14.412 14.412 0 0 1 1729.942 286.627 Q 1723.601 284.664 1723.601 276.002 A 23.63 23.63 0 0 1 1724.923 268.664 Q 1727.197 261.764 1733.38 252.83 A 139.747 139.747 0 0 1 1738.601 245.802 A 133.48 133.48 0 0 1 1758.058 226.037 A 182.169 182.169 0 0 1 1778.801 211.202 Q 1803.533 195.891 1827.11 195.607 A 73.952 73.952 0 0 1 1828.001 195.602 A 18.546 18.546 0 0 1 1832.406 196.1 A 13.864 13.864 0 0 1 1837.401 198.402 A 9.001 9.001 0 0 1 1840.883 203.899 A 14.27 14.27 0 0 1 1841.201 207.002 A 9.099 9.099 0 0 1 1840.406 210.435 Q 1838.382 215.314 1831.203 222.77 A 120.941 120.941 0 0 1 1829.601 224.402 Q 1820.368 233.635 1813.162 235.519 A 14.065 14.065 0 0 1 1809.601 236.002 A 4.703 4.703 0 0 1 1808.732 235.929 Q 1807.288 235.656 1807.206 234.362 A 2.524 2.524 0 0 1 1807.201 234.202 A 2.984 2.984 0 0 1 1807.502 232.956 Q 1808.12 231.614 1810.001 230.002 A 66.947 66.947 0 0 0 1815.463 225.049 Q 1823.201 217.139 1823.201 210.402 A 5.067 5.067 0 0 0 1820.337 205.783 Q 1817.849 204.374 1813.201 204.002 A 34.022 34.022 0 0 0 1800.635 206.977 Q 1790.044 211.501 1777.548 222.885 A 175.463 175.463 0 0 0 1770.201 230.002 A 222.418 222.418 0 0 0 1760.536 240.5 Q 1745.201 258.377 1745.201 268.402 Q 1745.201 272.663 1749.891 272.797 A 10.838 10.838 0 0 0 1750.201 272.802 A 10.34 10.34 0 0 0 1753.469 272.202 Q 1756.536 271.172 1760.487 268.372 A 61.362 61.362 0 0 0 1763.601 266.002 Q 1771.201 261.202 1792.001 242.002 A 23.524 23.524 0 0 1 1794.669 239.681 Q 1796.17 238.577 1797.629 237.965 A 9.186 9.186 0 0 1 1801.201 237.202 Q 1806.801 237.202 1806.801 242.402 A 5.411 5.411 0 0 1 1806.632 243.789 A 3.939 3.939 0 0 1 1805.601 245.602 Q 1804.621 246.582 1802.306 249.297 A 282.242 282.242 0 0 0 1801.201 250.602 A 188.674 188.674 0 0 0 1798.245 254.197 Q 1796.864 255.921 1795.677 257.5 A 115.386 115.386 0 0 0 1795.601 257.602 Q 1789.812 265.963 1788.678 269.671 A 5.397 5.397 0 0 0 1788.401 271.202 A 14.68 14.68 0 0 0 1788.665 274.122 Q 1789.583 278.625 1793.696 279.136 A 8.964 8.964 0 0 0 1794.801 279.202 Q 1802.106 279.202 1820.602 267.556 A 287.165 287.165 0 0 0 1826.401 263.802 Q 1849.601 248.402 1868.801 232.802 Z"
					vector-effect="non-scaling-stroke"
				>
					<animate
						id="animateA3"
						attributeName="stroke-dashoffset"
						from="-827.731201171875"
						to="0"
						begin="animateY1.end"
						dur=".8s"
						keyTimes="0 1"
						calcMode="linear"
						
					/>
					<set
						attributeName="stroke-dashoffset"
						to="0"
						begin="animateA3.end"
						end="repeat.click;indefinite"
					/>
				</path>
			</g>

			<style>
				#container {
					animation: text-flicker-in-glow 3s 9.8s linear both, flicker 10s 15s infinite alternate;
				}

				@keyframes text-flicker-in-glow {
					0% {
						opacity: 0.4;
					}
					10% {
						opacity: 0.4;
						filter: none;
					}
					10.1% {
						opacity: 0.5;
						filter: none;
					}
					10.2% {
						opacity: 0.2;
						filter: none;
					}
					20% {
						opacity: 0.2;
						filter: none;
					}
					20.1% {
						opacity: 0.5;
						filter: drop-shadow(0 0 0.1em #fff);
					}
					20.6% {
						opacity: 0.2;
						filter: none;
					}
					30% {
						opacity: 0.2;
						filter: none;
					}
					30.1% {
						opacity: 0.7;
						filter: drop-shadow(0 0 0.2em #fff);
					}
					30.5% {
						opacity: 0.7;
						filter: drop-shadow(0 0 0.2em #fff);
					}
					30.6% {
						opacity: 0.2;
						filter: none;
					}
					45% {
						opacity: 0.2;
						filter: none;
					}
					45.1% {
						opacity: 0.7;
						filter: drop-shadow(0 0 0.5em #fff) drop-shadow(0 0 2em #08f);
					}
					50% {
						opacity: 0.7;
						filter: drop-shadow(0 0 0.5em #fff) drop-shadow(0 0 2em #08f);
					}
					55% {
						opacity: 0.7;
						filter: drop-shadow(0 0 0.5em #fff) drop-shadow(0 0 2em #08f);
					}
					55.1% {
						opacity: 0.2;
						filter: none;
					}
					57% {
						opacity: 0.2;
						filter: none;
					}
					57.1% {
						opacity: 0.7;
						filter: drop-shadow(0 0 0.5em #fff) drop-shadow(0 0 2em #08f);
					}
					60% {
						opacity: 0.7;
						filter: drop-shadow(0 0 0.5em #fff) drop-shadow(0 0 2em #08f);
					}
					60.1% {
						opacity: 0.2;
						filter: none;
					}
					65% {
						opacity: 0.2;
						filter: none;
					}
					65.1% {
						opacity: 1;
						filter: drop-shadow(0 0 0.5em #fff) drop-shadow(0 0 2em #08f);
					}
					75% {
						opacity: 1;
						filter: drop-shadow(0 0 0.5em #fff) drop-shadow(0 0 2em #08f);
					}
					75.1% {
						opacity: 0.2;
						filter: none;
					}
					77% {
						opacity: 0.2;
						filter: none;
					}
					77.1% {
						opacity: 1;
						filter: drop-shadow(0 0 0.5em #fff) drop-shadow(0 0 2em #08f) drop-shadow(0 0 4em #08f);
					}
					85% {
						opacity: 1;
						filter: drop-shadow(0 0 0.5em #fff) drop-shadow(0 0 2em #08f) drop-shadow(0 0 4em #08f);
					}
					85.1% {
						opacity: 0.2;
						filter: none;
					}
					86% {
						opacity: 0.2;
						filter: none;
					}
					86.1% {
						opacity: 1;
						filter: drop-shadow(0 0 0.5em #fff) drop-shadow(0 0 2em #08f) drop-shadow(0 0 4em #08f);
					}
					100% {
						opacity: 1;
						filter: drop-shadow(0 0 0.5em #fff) drop-shadow(0 0 2em #08f) drop-shadow(0 0 4em #08f);
					}
				}
				@keyframes flicker {
					0%,
					19%,
					21%,
					23%,
					25%,
					54%,
					56%,
					100% {
						opacity: 1;
						filter: drop-shadow(0 0 0.5em #fff) drop-shadow(0 0 2em #08f) drop-shadow(0 0 4em #08f);
					}
					20%,
					24%,
					55% {
						opacity: 0.2;
						filter: none;
					}
				}
			</style>
		</svg>
