<svg width="714" height="76" viewBox="0 0 714 76" fill="none" xmlns="http://www.w3.org/2000/svg">
<g style="mix-blend-mode:color-burn">
<path d="M4.40625 38.2188L39.4219 53.3125V59.2656L0.609375 41.5V37.8438L4.40625 38.2188ZM39.4219 25.1406L4.45312 40.2812L0.609375 40.6094V36.9531L39.4219 19.2344V25.1406ZM56.5781 1.75H62.3906L87.6094 61.8438L112.875 1.75H118.641L89.8125 70H85.4062L56.5781 1.75ZM54.7969 1.75H59.9062L60.5156 40.1875V70H54.7969V1.75ZM115.406 1.75H120.516V70H114.75V40.1875L115.406 1.75ZM180.281 65.0781V70H141.891V65.0781H180.281ZM143.625 1.75V70H137.859V1.75H143.625ZM175.5 32.3594V37.2812H141.891V32.3594H175.5ZM180.047 1.75V6.71875H141.891V1.75H180.047ZM192.375 1.75H214.547C219.266 1.75 223.359 2.51562 226.828 4.04688C230.297 5.57813 232.969 7.84375 234.844 10.8438C236.75 13.8125 237.703 17.4688 237.703 21.8125C237.703 25.0312 237.016 27.9531 235.641 30.5781C234.297 33.2031 232.438 35.4062 230.062 37.1875C227.688 38.9375 224.938 40.1406 221.812 40.7969L219.797 41.5469H196.125L196.031 36.625H215.859C219.422 36.625 222.391 35.9375 224.766 34.5625C227.141 33.1875 228.922 31.375 230.109 29.125C231.328 26.8438 231.938 24.4062 231.938 21.8125C231.938 18.7188 231.266 16.0469 229.922 13.7969C228.609 11.5156 226.656 9.76562 224.062 8.54688C221.469 7.32812 218.297 6.71875 214.547 6.71875H198.141V70H192.375V1.75ZM234.516 70L216.844 39.4844L223.031 39.4375L240.656 69.3906V70H234.516ZM304.359 1.75V70H298.547L259.312 11.6875V70H253.547V1.75H259.312L298.641 60.0625V1.75H304.359ZM383.859 53.2188C383.859 51.3438 383.547 49.6719 382.922 48.2031C382.297 46.7344 381.266 45.4219 379.828 44.2656C378.422 43.0781 376.516 41.9844 374.109 40.9844C371.734 39.9531 368.766 38.9375 365.203 37.9375C361.797 36.9688 358.719 35.9062 355.969 34.75C353.219 33.5938 350.859 32.2656 348.891 30.7656C346.953 29.2656 345.469 27.5156 344.438 25.5156C343.406 23.4844 342.891 21.125 342.891 18.4375C342.891 15.8125 343.453 13.4219 344.578 11.2656C345.703 9.10938 347.281 7.25 349.312 5.6875C351.375 4.125 353.797 2.92188 356.578 2.07812C359.391 1.23438 362.469 0.8125 365.812 0.8125C370.594 0.8125 374.719 1.71875 378.188 3.53125C381.688 5.34375 384.391 7.79688 386.297 10.8906C388.234 13.9531 389.203 17.3906 389.203 21.2031H383.438C383.438 18.2344 382.734 15.5938 381.328 13.2812C379.953 10.9375 377.953 9.10938 375.328 7.79688C372.734 6.45312 369.562 5.78125 365.812 5.78125C362.062 5.78125 358.906 6.35937 356.344 7.51562C353.812 8.64062 351.891 10.1562 350.578 12.0625C349.297 13.9375 348.656 16.0312 348.656 18.3438C348.656 19.9688 348.969 21.4688 349.594 22.8438C350.219 24.1875 351.234 25.4531 352.641 26.6406C354.078 27.7969 355.969 28.8906 358.312 29.9219C360.656 30.9219 363.547 31.875 366.984 32.7812C370.609 33.7812 373.828 34.8906 376.641 36.1094C379.453 37.3281 381.828 38.7344 383.766 40.3281C385.703 41.8906 387.172 43.7188 388.172 45.8125C389.172 47.9062 389.672 50.3438 389.672 53.125C389.672 55.9062 389.078 58.4062 387.891 60.625C386.734 62.8125 385.094 64.6719 382.969 66.2031C380.875 67.7344 378.391 68.9062 375.516 69.7188C372.672 70.5312 369.562 70.9375 366.188 70.9375C363.156 70.9375 360.141 70.5469 357.141 69.7656C354.141 68.9844 351.391 67.7812 348.891 66.1562C346.422 64.5 344.438 62.375 342.938 59.7812C341.469 57.1875 340.734 54.0938 340.734 50.5H346.453C346.453 53.375 347.031 55.7969 348.188 57.7656C349.344 59.7344 350.875 61.3281 352.781 62.5469C354.719 63.7656 356.844 64.6562 359.156 65.2188C361.5 65.75 363.844 66.0156 366.188 66.0156C369.781 66.0156 372.891 65.4844 375.516 64.4219C378.172 63.3594 380.219 61.875 381.656 59.9688C383.125 58.0312 383.859 55.7812 383.859 53.2188ZM425.016 1.75V70H419.297V1.75H425.016ZM448.406 1.75V6.71875H395.953V1.75H448.406ZM478.172 5.82812L454.547 70H448.547L474.328 1.75H478.5L478.172 5.82812ZM499.641 70L475.969 5.82812L475.641 1.75H479.812L505.641 70H499.641ZM495.422 45.9062V50.875H459.188V45.9062H495.422ZM557.719 48.7188H563.484C563.016 53.3125 561.75 57.2812 559.688 60.625C557.625 63.9375 554.812 66.4844 551.25 68.2656C547.688 70.0469 543.391 70.9375 538.359 70.9375C534.484 70.9375 530.969 70.2031 527.812 68.7344C524.688 67.2656 522 65.1875 519.75 62.5C517.5 59.7812 515.766 56.5312 514.547 52.75C513.328 48.9688 512.719 44.7656 512.719 40.1406V31.6094C512.719 26.9844 513.328 22.7969 514.547 19.0469C515.766 15.2656 517.516 12.0156 519.797 9.29688C522.078 6.57812 524.812 4.48437 528 3.01562C531.188 1.54688 534.781 0.8125 538.781 0.8125C543.625 0.8125 547.812 1.70312 551.344 3.48438C554.875 5.23437 557.656 7.76562 559.688 11.0781C561.75 14.3906 563.016 18.3906 563.484 23.0781H557.719C557.281 19.3906 556.312 16.2656 554.812 13.7031C553.312 11.1406 551.234 9.1875 548.578 7.84375C545.953 6.46875 542.688 5.78125 538.781 5.78125C535.594 5.78125 532.75 6.39062 530.25 7.60938C527.75 8.82812 525.625 10.5781 523.875 12.8594C522.125 15.1094 520.781 17.8125 519.844 20.9688C518.938 24.125 518.484 27.6406 518.484 31.5156V40.1406C518.484 43.8906 518.922 47.3438 519.797 50.5C520.672 53.6562 521.953 56.3906 523.641 58.7031C525.359 61.0156 527.453 62.8125 529.922 64.0938C532.391 65.375 535.203 66.0156 538.359 66.0156C542.391 66.0156 545.75 65.375 548.438 64.0938C551.156 62.7812 553.266 60.8438 554.766 58.2812C556.266 55.7188 557.25 52.5312 557.719 48.7188ZM583.312 1.75V70H577.547V1.75H583.312ZM625.5 1.75L596.062 33.0156L581.25 47.5938L580.688 41.1719L592.594 28.7969L618.281 1.75H625.5ZM620.719 70L591.984 34.9375L595.453 30.2969L627.703 70H620.719ZM664.547 1.75L636.047 75.8594H630.984L659.484 1.75H664.547ZM708.938 39.9531L673.5 24.9531V19.0938L713.109 36.8125V40.5625L708.938 39.9531ZM673.5 53.3125L709.031 38.125L713.109 37.6562V41.4062L673.5 59.1719V53.3125Z" fill="black"/>
</g>
</svg>
